HIERARCHY
ROOT hip
{
  OFFSET 0.0 0.0 0.0
  CHANNELS 6 Xposition Yposition Zposition Zrotation Yrotation Xrotation
  JOINT abdomen
  {
    OFFSET 0.0 20.6881 -0.73152
    CHANNELS 3 Zrotation Xrotation Yrotation
    JOINT chest
    {
      OFFSET 0.0 11.7043 -0.48768
      CHANNELS 3 Zrotation Xrotation Yrotation
      JOINT neck
      {
        OFFSET 0.0 22.1894 -2.19456
        CHANNELS 3 Zrotation Xrotation Yrotation
        JOINT head
        {
          OFFSET -0.24384 7.07133 1.2192
          CHANNELS 3 Zrotation Xrotation Yrotation
          JOINT leftEye
          {
            OFFSET 4.14528 8.04674 8.04672
            CHANNELS 3 Zrotation Xrotation Yrotation
            End Site
            {
              OFFSET 1.0 0.0 0.0
            }
          }
          JOINT rightEye
          {
            OFFSET -3.6576 8.04674 8.04672
            CHANNELS 3 Zrotation Xrotation Yrotation
            End Site
            {
              OFFSET 1.0 0.0 0.0
            }
          }
        }
      }
      JOINT rCollar
      {
        OFFSET -2.68224 19.2634 -4.8768
        CHANNELS 3 Zrotation Xrotation Yrotation
        JOINT rShldr
        {
          OFFSET -8.77824 -1.95073 1.46304
          CHANNELS 3 Zrotation Xrotation Yrotation
          JOINT rForeArm
          {
            OFFSET -28.1742 -1.7115 0.48768
            CHANNELS 3 Zrotation Xrotation Yrotation
            JOINT rHand
            {
              OFFSET -22.5879 0.773209 7.07136
              CHANNELS 3 Zrotation Xrotation Yrotation
              JOINT rThumb1
              {
                OFFSET -1.2192 -0.487915 3.41376
                CHANNELS 3 Zrotation Xrotation Yrotation
                JOINT rThumb2
                {
                  OFFSET -3.37035 -0.52449 3.41376
                  CHANNELS 3 Zrotation Xrotation Yrotation
                  End Site
                  {
                    OFFSET -1.78271 -1.18214 1.43049
                  }
                }
              }
              JOINT rIndex1
              {
                OFFSET -7.75947 0.938293 5.60832
                CHANNELS 3 Zrotation Xrotation Yrotation
                JOINT rIndex2
                {
                  OFFSET -2.54057 -0.884171 1.56538
                  CHANNELS 3 Zrotation Xrotation Yrotation
                  End Site
                  {
                    OFFSET -1.62519 -0.234802 1.16502
                  }
                }
              }
              JOINT rMid1
              {
                OFFSET -8.24714 1.18213 3.41376
                CHANNELS 3 Zrotation Xrotation Yrotation
                JOINT rMid2
                {
                  OFFSET -3.10165 -0.590103 1.0647
                  CHANNELS 3 Zrotation Xrotation Yrotation
                  End Site
                  {
                    OFFSET -2.48547 -0.328903 0.83742
                  }
                }
              }
              JOINT rRing1
              {
                OFFSET -8.82822 0.546677 1.51678
                CHANNELS 3 Zrotation Xrotation Yrotation
                JOINT rRing2
                {
                  OFFSET -2.60934 -0.819778 -0.0198488
                  CHANNELS 3 Zrotation Xrotation Yrotation
                  End Site
                  {
                    OFFSET -2.33842 -0.294052 0.168128
                  }
                }
              }
              JOINT rPinky1
              {
                OFFSET -8.27202 -0.0477905 -0.4584
                CHANNELS 3 Zrotation Xrotation Yrotation
                JOINT rPinky2
                {
                  OFFSET -1.82734 -0.647385 -0.700984
                  CHANNELS 3 Zrotation Xrotation Yrotation
                  End Site
                  {
                    OFFSET -1.69225 -0.51767 -0.607171
                  }
                }
              }
            }
          }
        }
      }
      JOINT lCollar
      {
        OFFSET 2.68224 19.2634 -4.8768
        CHANNELS 3 Zrotation Xrotation Yrotation
        JOINT lShldr
        {
          OFFSET 8.77824 -1.95073 1.46304
          CHANNELS 3 Zrotation Xrotation Yrotation
          JOINT lForeArm
          {
            OFFSET 28.1742 -1.7115 0.48768
            CHANNELS 3 Zrotation Xrotation Yrotation
            JOINT lHand
            {
              OFFSET 22.5879 0.773209 7.07136
              CHANNELS 3 Zrotation Xrotation Yrotation
              JOINT lThumb1
              {
                OFFSET 1.2192 -0.487915 3.41376
                CHANNELS 3 Zrotation Xrotation Yrotation
                JOINT lThumb2
                {
                  OFFSET 3.37035 -0.52449 3.41376
                  CHANNELS 3 Zrotation Xrotation Yrotation
                  End Site
                  {
                    OFFSET 1.78271 -1.18214 1.43049
                  }
                }
              }
              JOINT lIndex1
              {
                OFFSET 7.75947 0.938293 5.60832
                CHANNELS 3 Zrotation Xrotation Yrotation
                JOINT lIndex2
                {
                  OFFSET 2.54057 -0.884171 1.56538
                  CHANNELS 3 Zrotation Xrotation Yrotation
                  End Site
                  {
                    OFFSET 1.62519 -0.234802 1.16502
                  }
                }
              }
              JOINT lMid1
              {
                OFFSET 8.24714 1.18213 3.41376
                CHANNELS 3 Zrotation Xrotation Yrotation
                JOINT lMid2
                {
                  OFFSET 3.10165 -0.590103 1.0647
                  CHANNELS 3 Zrotation Xrotation Yrotation
                  End Site
                  {
                    OFFSET 2.48547 -0.328903 0.83742
                  }
                }
              }
              JOINT lRing1
              {
                OFFSET 8.82822 0.546677 1.51678
                CHANNELS 3 Zrotation Xrotation Yrotation
                JOINT lRing2
                {
                  OFFSET 2.60934 -0.819778 -0.0198488
                  CHANNELS 3 Zrotation Xrotation Yrotation
                  End Site
                  {
                    OFFSET 2.33842 -0.294052 0.168128
                  }
                }
              }
              JOINT lPinky1
              {
                OFFSET 8.27202 -0.0477905 -0.4584
                CHANNELS 3 Zrotation Xrotation Yrotation
                JOINT lPinky2
                {
                  OFFSET 1.82734 -0.647385 -0.700984
                  CHANNELS 3 Zrotation Xrotation Yrotation
                  End Site
                  {
                    OFFSET 1.69225 -0.51767 -0.607171
                  }
                }
              }
            }
          }
        }
      }
    }
  }
  JOINT rButtock
  {
    OFFSET -8.77824 4.35084 1.2192
    CHANNELS 3 Zrotation Xrotation Yrotation
    JOINT rThigh
    {
      OFFSET 0.0 -1.70687 -2.19456
      CHANNELS 3 Zrotation Xrotation Yrotation
      JOINT rShin
      {
        OFFSET 0.0 -36.8199 0.73152
        CHANNELS 3 Zrotation Xrotation Yrotation
        JOINT rFoot
        {
          OFFSET 0.73152 -45.1104 -5.12064
          CHANNELS 3 Zrotation Xrotation Yrotation
          End Site
          {
            OFFSET -1.1221 -3.69964 12.103
          }
        }
      }
    }
  }
  JOINT lButtock
  {
    OFFSET 8.77824 4.35084 1.2192
    CHANNELS 3 Zrotation Xrotation Yrotation
    JOINT lThigh
    {
      OFFSET 0.0 -1.70687 -2.19456
      CHANNELS 3 Zrotation Xrotation Yrotation
      JOINT lShin
      {
        OFFSET 0.0 -36.8199 0.73152
        CHANNELS 3 Zrotation Xrotation Yrotation
        JOINT lFoot
        {
          OFFSET -0.73152 -45.1104 -5.12064
          CHANNELS 3 Zrotation Xrotation Yrotation
          End Site
          {
            OFFSET 1.1221 -3.69964 12.103
          }
        }
      }
    }
  }
}
MOTION
Frames: 4
Frame Time: 0.00833333
-33.24000000000001 88.0105 0.14450000000000074 -272.75 -87.6063 274.913 -5.96065 2.09562 -4.13229 -1.04048 -1.61392 -1.31637 2.18177 9.62004 0.942125 0.582628 -23.1415 1.72353 -0.0 0.0 0.0 -0.0 0.0 0.0 -1.3471e-13 2.25581e-12 -9.03476e-14 82.548 15.9776 -0.0994321 -10.7465 -4.60756 19.209 -0.0474098 6.2031 0.875242 2.09534e-09 6.10041e-10 -3.68803e-09 3.59501e-09 1.05801e-09 -6.38694e-09 2.09534e-09 6.10043e-10 -3.68804e-09 7.73091 5.47488 0.417314 2.09533e-09 6.10039e-10 -3.68802e-09 2.90554 0.965183 0.102902 2.09534e-09 6.10043e-10 -3.68803e-09 10.2786 0.731801 0.0259123 2.09533e-09 6.10045e-10 -3.68802e-09 2.22167 -0.733487 -0.20892 -1.34854e-13 2.25581e-12 -9.0593e-14 -75.4351 26.3436 -8.49811 15.0636 -7.84639 -27.7173 0.548784 -20.5695 3.02323 1.90267e-09 -1.41066e-09 1.6567e-09 3.2746e-09 -2.43277e-09 2.88562e-09 1.90266e-09 -1.41066e-09 1.65672e-09 -7.73091 5.47488 -0.417314 1.90267e-09 -1.41066e-09 1.6567e-09 -2.90554 0.965183 -0.102902 1.90266e-09 -1.41066e-09 1.6567e-09 -10.2786 0.731801 -0.0259123 1.90267e-09 -1.41066e-09 1.65669e-09 -2.22167 -0.733487 0.20892 -2.03217e-16 0.0 -3.88251e-19 -2.19893 -38.2938 7.58269 -0.146463 28.9876 1.00039 0.787632 9.41985 -18.4279 2.03217e-16 0.0 3.88251e-19 -6.91307 8.6451 14.6904 -0.114837 12.7323 -1.16147 1.07791 2.74322 -4.19163
-34.05000000000001 87.9619 0.08470000000000155 -282.662 -87.5419 284.911 -5.91837 2.022 -4.35462 -0.960868 -1.67657 -1.37769 2.19124 9.5717 0.892685 0.530879 -23.1475 1.61259 -0.0 0.0 0.0 -0.0 0.0 0.0 -1.33365e-13 2.27051e-12 -1.11127e-13 82.542 15.5453 -0.246306 -10.6479 -4.5445 19.022 -0.051308 6.45203 0.910662 2.03049e-09 1.00937e-09 -5.52525e-09 3.47054e-09 1.74686e-09 -9.56273e-09 2.0305e-09 1.00937e-09 -5.52526e-09 7.73091 5.47488 0.417314 2.03049e-09 1.00936e-09 -5.52525e-09 2.90554 0.965183 0.102902 2.0305e-09 1.00937e-09 -5.52525e-09 10.2786 0.731801 0.0259123 2.03049e-09 1.00937e-09 -5.52524e-09 2.22167 -0.733487 -0.20892 -1.33434e-13 2.27052e-12 -1.11372e-13 -75.555 26.3242 -8.62656 14.7974 -7.61631 -27.1722 0.533401 -20.2935 2.97902 1.94313e-09 -1.61181e-09 2.66849e-09 3.3336e-09 -2.77808e-09 4.63376e-09 1.94312e-09 -1.6118e-09 2.66852e-09 -7.73091 5.47488 -0.417314 1.94313e-09 -1.6118e-09 2.66849e-09 -2.90554 0.965183 -0.102902 1.94313e-09 -1.6118e-09 2.66849e-09 -10.2786 0.731801 -0.0259123 1.94314e-09 -1.6118e-09 2.66848e-09 -2.22167 -0.733487 0.20892 -2.03217e-16 0.0 -3.88251e-19 -2.41579 -38.5364 7.01656 -0.144516 28.8521 1.00207 0.926742 9.72845 -18.7099 2.03217e-16 0.0 3.88251e-19 -6.82192 9.01496 14.1903 -0.11584 12.6788 -1.16859 1.06038 2.92485 -3.87509
-34.887 87.9094 0.01740000000000208 -291.821 -87.4257 294.127 -5.84713 1.97594 -4.55252 -0.893266 -1.73291 -1.43369 2.18983 9.5158 0.838742 0.49696 -23.1615 1.49745 -0.0 0.0 0.0 -0.0 0.0 0.0 -1.23856e-13 2.07842e-12 -1.16736e-13 82.5353 15.1344 -0.397998 -10.5538 -4.48475 18.8442 -0.055229 6.69124 0.944733 1.59533e-09 9.71361e-10 -5.41453e-09 2.71943e-09 1.67997e-09 -9.3689e-09 1.59534e-09 9.71362e-10 -5.41455e-09 7.73091 5.47488 0.417314 1.59533e-09 9.71359e-10 -5.41454e-09 2.90554 0.965183 0.102902 1.59533e-09 9.7136e-10 -5.41454e-09 10.2786 0.731801 0.0259123 1.59533e-09 9.71362e-10 -5.41453e-09 2.22167 -0.733487 -0.20892 -1.23888e-13 2.07842e-12 -1.16985e-13 -75.6985 26.26 -8.72699 14.5245 -7.38556 -26.6155 0.51586 -19.9769 2.92843 1.69601e-09 -1.36189e-09 2.60685e-09 2.90602e-09 -2.34512e-09 4.52431e-09 1.696e-09 -1.36189e-09 2.60688e-09 -7.73091 5.47488 -0.417314 1.69601e-09 -1.36189e-09 2.60685e-09 -2.90554 0.965183 -0.102902 1.69601e-09 -1.36189e-09 2.60685e-09 -10.2786 0.731801 -0.0259123 1.69602e-09 -1.36189e-09 2.60684e-09 -2.22167 -0.733487 0.20892 -2.03217e-16 0.0 -3.88251e-19 -2.57644 -38.6744 6.49832 -0.143451 28.8087 1.00457 1.04229 9.96045 -19.0232 2.03217e-16 0.0 3.88251e-19 -6.69218 9.41773 13.7097 -0.116725 12.6366 -1.17491 1.04875 3.18304 -3.58822
-35.751000000000005 87.8535 -0.06119999999999948 -300.13 -87.283 302.459 -5.73415 1.97095 -4.72454 -0.840596 -1.78362 -1.48425 2.17397 9.44596 0.778565 0.48489 -23.1833 1.37566 -0.0 0.0 0.0 -0.0 0.0 0.0 -1.03116e-13 1.53341e-12 -1.04313e-13 82.5242 14.7419 -0.550847 -10.465 -4.42867 18.6764 -0.0590951 6.91892 0.977194 4.78137e-10 1.81263e-10 -1.93137e-09 8.12695e-10 3.13356e-10 -3.34105e-09 4.78146e-10 1.81264e-10 -1.93138e-09 7.73091 5.47488 0.417314 4.78138e-10 1.81261e-10 -1.93138e-09 2.90554 0.965183 0.102902 4.7814e-10 1.81262e-10 -1.93137e-09 10.2786 0.731801 0.0259123 4.78134e-10 1.81264e-10 -1.93137e-09 2.22167 -0.733487 -0.20892 -1.03176e-13 1.53341e-12 -1.04575e-13 -75.8649 26.1486 -8.81142 14.24 -7.15076 -26.0366 0.495712 -19.606 2.86942 9.43443e-10 -2.77304e-10 7.03236e-10 1.62257e-09 -4.71293e-10 1.22726e-09 9.4343e-10 -2.773e-10 7.03266e-10 -7.73091 5.47488 -0.417314 9.43445e-10 -2.77302e-10 7.03235e-10 -2.90554 0.965183 -0.102902 9.43441e-10 -2.77302e-10 7.03233e-10 -10.2786 0.731801 -0.0259123 9.4345e-10 -2.773e-10 7.03221e-10 -2.22167 -0.733487 0.20892 -2.03217e-16 0.0 -3.88251e-19 -2.6673 -38.6942 6.03777 -0.143415 28.8666 1.00773 1.13727 10.1056 -19.4487 2.03217e-16 0.0 3.88251e-19 -6.51544 9.86378 13.2484 -0.11749 12.608 -1.1805 1.043 3.5051 -3.34303
